<svg xmlns="http://www.w3.org/2000/svg" viewBox="0 0 413.95 389.83"><defs><style>.cls-1{fill:#fff;}</style></defs><g id="Livello_2" data-name="Livello 2"><g id="Livello_1-2" data-name="Livello 1"><path class="cls-1" d="M201,9.49c-1.67,0-2.59.76-2.59,1.8s1.15,1.67,2.55,2l1.45.34c2.79.63,4.81,2,4.82,4.73,0,2.95-2.32,4.83-6.25,4.83s-6.39-1.8-6.48-5.28h3.29c.11,1.61,1.39,2.42,3.15,2.42s2.85-.8,2.86-2-1-1.59-2.74-2l-1.75-.44c-2.72-.65-4.39-2-4.38-4.38,0-2.93,2.56-4.87,6.09-4.87s5.94,2,6,4.85h-3.26C203.6,10.23,202.61,9.49,201,9.49Z"/><path class="cls-1" d="M209.31,7.64a1.81,1.81,0,0,1,3.62,0,1.81,1.81,0,0,1-3.62,0Zm.12,3.25h3.35V23h-3.35Z"/><path class="cls-1" d="M222.43,14.52a1.87,1.87,0,0,0-2-1.41c-1,0-1.85.47-1.84,1.19s.41,1,1.53,1.21l2.18.44c2.35.48,3.48,1.52,3.49,3.27,0,2.38-2.24,4-5.37,4s-5.16-1.43-5.48-3.74l3.29-.17a2,2,0,0,0,2.2,1.49c1.17,0,1.94-.51,2-1.22s-.49-1-1.55-1.2l-2.09-.42c-2.36-.47-3.49-1.64-3.49-3.45,0-2.33,2-3.76,5.12-3.76s4.84,1.38,5.14,3.6Z"/><path class="cls-1" d="M234.31,13.4H232v5.85c0,.93.46,1.18,1.13,1.18a4.52,4.52,0,0,0,.83-.11l.53,2.49a6.5,6.5,0,0,1-1.81.31c-2.43.11-4-1.06-4-3.43V13.4H227V10.89h1.65V8H232v2.89h2.27Z"/><path class="cls-1" d="M235.88,17c0-3.73,2.3-6.25,5.85-6.25,3.19,0,5.68,2,5.68,6.13v.92h-8.22a2.62,2.62,0,0,0,2.73,2.91,2.27,2.27,0,0,0,2.32-1.4l3.1.2c-.47,2.24-2.49,3.7-5.47,3.7C238.15,23.2,235.88,20.81,235.88,17Zm8.38-1.27a2.39,2.39,0,0,0-2.47-2.48,2.55,2.55,0,0,0-2.6,2.48Z"/><path class="cls-1" d="M249.6,10.89h3.19V13h.14a3.39,3.39,0,0,1,3.36-2.29A3.19,3.19,0,0,1,259.57,13h.13a3.66,3.66,0,0,1,3.63-2.29c2.25,0,3.81,1.5,3.81,4.11V23H263.8V15.5a1.79,1.79,0,0,0-1.87-2,1.89,1.89,0,0,0-1.94,2.1V23h-3.24V15.43a1.78,1.78,0,0,0-1.84-1.94,2,2,0,0,0-2,2.22V23H249.6Z"/><path class="cls-1" d="M269.22,19.59c0-2.7,2.15-3.5,4.53-3.72,2.1-.2,2.93-.3,2.93-1.08v0c0-1-.65-1.56-1.79-1.56a2,2,0,0,0-2.15,1.39l-3.1-.25c.47-2.2,2.37-3.59,5.26-3.59,2.69,0,5.13,1.21,5.13,4.09V23h-3.18V21.29h-.09a3.72,3.72,0,0,1-3.53,1.9C270.93,23.19,269.22,22,269.22,19.59Zm7.48-.94V17.37a8.53,8.53,0,0,1-2.32.54c-1.18.16-2,.63-2,1.57s.74,1.4,1.77,1.4A2.31,2.31,0,0,0,276.7,18.65Z"/><path class="cls-1" d="M194.13,45.1,199.68,29h4.39l5.55,16.1H206l-1.19-3.67H199l-1.2,3.67Zm9.79-6.33-2-6.09h-.13l-2,6.09Z"/><path class="cls-1" d="M210.85,46.51l3.09-.41a2.4,2.4,0,0,0,2.5,1.37c1.46,0,2.52-.64,2.52-2.3V43h-.14a3.51,3.51,0,0,1-3.45,2c-2.71,0-4.89-1.87-4.89-5.88s2.24-6.17,4.89-6.17a3.58,3.58,0,0,1,3.45,2.18h.12V33h3.33V45.22c0,3.08-2.46,4.66-5.91,4.66C213.11,49.88,211.25,48.41,210.85,46.51ZM219,39c0-2.11-.91-3.49-2.53-3.49S213.9,37,213.9,39s.89,3.39,2.54,3.39S219,41.15,219,39Z"/><path class="cls-1" d="M224.94,33h3.25v2.1h.13a2.93,2.93,0,0,1,2.89-2.28,5.13,5.13,0,0,1,1.06.12v3a5.78,5.78,0,0,0-1.42-.18,2.44,2.44,0,0,0-2.56,2.51V45.1h-3.35Z"/><path class="cls-1" d="M232.94,39.11c0-3.74,2.28-6.24,5.94-6.24s5.94,2.5,5.94,6.24-2.28,6.22-5.94,6.22S232.94,42.83,232.94,39.11Zm8.48,0c0-2.11-.87-3.67-2.52-3.67s-2.56,1.56-2.56,3.67.87,3.65,2.56,3.65S241.42,41.19,241.42,39.09Z"/><path class="cls-1" d="M246.45,41.73c0-2.7,2.14-3.5,4.53-3.72,2.1-.2,2.92-.31,2.92-1.09v0c0-1-.65-1.57-1.79-1.57a2,2,0,0,0-2.14,1.4l-3.1-.26c.46-2.2,2.37-3.58,5.26-3.58,2.69,0,5.12,1.21,5.12,4.09V45.1h-3.17V43.42H254a3.7,3.7,0,0,1-3.53,1.91C248.15,45.33,246.45,44.12,246.45,41.73Zm7.48-.95V39.5a7.92,7.92,0,0,1-2.33.54c-1.18.17-2,.63-2,1.58s.74,1.4,1.77,1.4A2.32,2.32,0,0,0,253.93,40.78Z"/><path class="cls-1" d="M263.21,45.1h-3.35V29h3.35Z"/><path class="cls-1" d="M265.75,29.77a1.82,1.82,0,1,1,1.81,1.7A1.77,1.77,0,0,1,265.75,29.77Zm.13,3.26h3.35V45.1h-3.35Z"/><path class="cls-1" d="M271.9,33h3.19v2.13h.14a3.39,3.39,0,0,1,3.37-2.29,3.18,3.18,0,0,1,3.27,2.29H282a3.66,3.66,0,0,1,3.64-2.29c2.24,0,3.8,1.49,3.8,4.11V45.1H286.1V37.64a1.79,1.79,0,0,0-1.87-2,1.88,1.88,0,0,0-1.93,2.1V45.1h-3.25V37.57a1.78,1.78,0,0,0-1.84-1.94,2,2,0,0,0-2,2.22V45.1H271.9Z"/><path class="cls-1" d="M291.6,39.12c0-3.73,2.31-6.25,5.86-6.25,3.19,0,5.67,2,5.67,6.13v.92h-8.22a2.62,2.62,0,0,0,2.74,2.9A2.25,2.25,0,0,0,300,41.44l3.1.2c-.47,2.24-2.48,3.69-5.47,3.69C293.87,45.33,291.6,42.94,291.6,39.12ZM300,37.84a2.38,2.38,0,0,0-2.47-2.47,2.55,2.55,0,0,0-2.6,2.47Z"/><path class="cls-1" d="M308.67,45.1h-3.35V33h3.19v2.13h.14a3.64,3.64,0,0,1,3.63-2.29c2.52,0,4.17,1.73,4.17,4.54V45.1H313.1V38A2.07,2.07,0,0,0,311,35.65a2.23,2.23,0,0,0-2.29,2.47Z"/><path class="cls-1" d="M325.51,35.54h-2.27v5.85c0,.93.46,1.18,1.13,1.18a4.79,4.79,0,0,0,.83-.11l.53,2.49a6.51,6.51,0,0,1-1.82.31c-2.43.11-4-1.07-4-3.43V35.54h-1.65V33h1.65V30.14h3.35V33h2.27Z"/><path class="cls-1" d="M327.12,41.73c0-2.7,2.15-3.5,4.54-3.72,2.09-.2,2.92-.31,2.92-1.09v0c0-1-.65-1.57-1.79-1.57a2,2,0,0,0-2.15,1.4l-3.1-.26c.47-2.2,2.37-3.58,5.26-3.58,2.69,0,5.13,1.21,5.13,4.09V45.1h-3.18V43.42h-.09a3.71,3.71,0,0,1-3.53,1.91C328.83,45.33,327.12,44.12,327.12,41.73Zm7.48-.95V39.5a7.85,7.85,0,0,1-2.32.54c-1.18.17-2,.63-2,1.58s.74,1.4,1.77,1.4A2.32,2.32,0,0,0,334.6,40.78Z"/><path class="cls-1" d="M340.53,33h3.25v2.1h.12a2.94,2.94,0,0,1,2.9-2.28,5.13,5.13,0,0,1,1.06.12v3a5.78,5.78,0,0,0-1.42-.18,2.43,2.43,0,0,0-2.56,2.51V45.1h-3.35Z"/><path class="cls-1" d="M348.53,39.12c0-3.73,2.3-6.25,5.85-6.25,3.19,0,5.68,2,5.68,6.13v.92h-8.22a2.62,2.62,0,0,0,2.73,2.9,2.27,2.27,0,0,0,2.32-1.39l3.09.2c-.47,2.24-2.48,3.69-5.46,3.69C350.8,45.33,348.53,42.94,348.53,39.12Zm8.37-1.28a2.37,2.37,0,0,0-2.46-2.47,2.54,2.54,0,0,0-2.6,2.47Z"/><path class="cls-1" d="M194.39,51.14H207.6V54h-4.92V67.24h-3.37V54h-4.92Z"/><path class="cls-1" d="M207.48,61.26c0-3.73,2.31-6.25,5.86-6.25,3.19,0,5.67,2,5.67,6.13v.92h-8.22a2.62,2.62,0,0,0,2.74,2.9,2.26,2.26,0,0,0,2.31-1.4l3.1.21c-.47,2.24-2.48,3.69-5.47,3.69C209.75,67.47,207.48,65.08,207.48,61.26ZM215.86,60a2.37,2.37,0,0,0-2.47-2.47,2.55,2.55,0,0,0-2.6,2.47Z"/><path class="cls-1" d="M221.2,55.17h3.25v2.1h.12a2.94,2.94,0,0,1,2.9-2.28,5.13,5.13,0,0,1,1.06.12v3a5.78,5.78,0,0,0-1.42-.18,2.43,2.43,0,0,0-2.56,2.51v6.83H221.2Z"/><path class="cls-1" d="M229.35,63.87c0-2.7,2.14-3.5,4.53-3.72,2.1-.21,2.92-.31,2.92-1.09v0c0-1-.65-1.57-1.79-1.57a2,2,0,0,0-2.14,1.39l-3.1-.25c.46-2.2,2.37-3.58,5.26-3.58,2.69,0,5.12,1.21,5.12,4.08v8.15H237V65.56h-.1a3.69,3.69,0,0,1-3.53,1.9C231.05,67.46,229.35,66.25,229.35,63.87Zm7.48-.95V61.64a7.92,7.92,0,0,1-2.33.54c-1.18.17-2,.63-2,1.57s.74,1.4,1.77,1.4A2.32,2.32,0,0,0,236.83,62.92Z"/><path class="cls-1" d="M242.76,55.17H246V57.3h.14A3.38,3.38,0,0,1,249.45,55a3.18,3.18,0,0,1,3.28,2.29h.13A3.66,3.66,0,0,1,256.5,55c2.24,0,3.8,1.49,3.8,4.11v8.12H257V59.78a1.79,1.79,0,0,0-1.87-2,1.88,1.88,0,0,0-1.93,2.1v7.37h-3.25V59.71a1.78,1.78,0,0,0-1.84-1.94,2,2,0,0,0-2,2.22v7.25h-3.35Z"/><path class="cls-1" d="M262.46,61.25c0-3.74,2.28-6.24,5.94-6.24s5.94,2.5,5.94,6.24-2.28,6.22-5.94,6.22S262.46,65,262.46,61.25Zm8.48,0c0-2.1-.87-3.66-2.52-3.66s-2.56,1.56-2.56,3.66.87,3.66,2.56,3.66S270.94,63.33,270.94,61.22Z"/><path class="cls-1" d="M6.17,99.54H2.76V83.45H6.17Z"/><path class="cls-1" d="M8.36,83.45H21.58v2.81H16.65V99.54H13.29V86.26H8.36Z"/><path class="cls-1" d="M29.75,86.08c-1.67,0-2.58.76-2.58,1.79s1.14,1.68,2.54,2l1.45.35C34,90.84,36,92.27,36,95c0,2.94-2.32,4.82-6.24,4.82s-6.4-1.8-6.49-5.28h3.29c.12,1.61,1.39,2.43,3.16,2.43s2.84-.8,2.85-2-1-1.59-2.74-2l-1.75-.44c-2.72-.66-4.39-2-4.38-4.39,0-2.92,2.57-4.87,6.09-4.87s5.95,2,6,4.85H32.5C32.38,86.81,31.38,86.08,29.75,86.08Z"/><path class="cls-1" d="M46.8,99.54H43.4V83.45h3.4Z"/><path class="cls-1" d="M56.53,91.1a1.9,1.9,0,0,0-2-1.41c-1,0-1.86.47-1.85,1.19s.41,1,1.53,1.21l2.19.44c2.34.48,3.48,1.53,3.49,3.27,0,2.38-2.25,4-5.38,4S49.33,98.36,49,96.05l3.3-.18a2,2,0,0,0,2.19,1.5c1.17,0,2-.51,2-1.23s-.49-1-1.54-1.2l-2.09-.42c-2.36-.47-3.5-1.64-3.49-3.45,0-2.32,2-3.75,5.11-3.75s4.84,1.37,5.14,3.6Z"/><path class="cls-1" d="M68.41,90H66.13v5.84c0,.93.47,1.18,1.14,1.18a4.79,4.79,0,0,0,.83-.11l.53,2.49a6.5,6.5,0,0,1-1.82.32c-2.43.1-4-1.07-4-3.44V90H61.14V87.47h1.65V84.58h3.34v2.89h2.28Z"/><path class="cls-1" d="M70.46,84.22a1.81,1.81,0,1,1,1.81,1.7A1.76,1.76,0,0,1,70.46,84.22Zm.13,3.25h3.34V99.54H70.59Z"/><path class="cls-1" d="M83,90H80.76v5.84c0,.93.46,1.18,1.13,1.18a4.66,4.66,0,0,0,.83-.11l.53,2.49a6.42,6.42,0,0,1-1.82.32c-2.43.1-4-1.07-4-3.44V90H75.76V87.47h1.65V84.58h3.35v2.89H83Z"/><path class="cls-1" d="M93,87.47H96.3V99.54H93.08V97.35H93a3.71,3.71,0,0,1-3.67,2.35c-2.42,0-4.07-1.72-4.08-4.54V87.47h3.35v7.09a2.06,2.06,0,0,0,2.09,2.31A2.27,2.27,0,0,0,93,94.4Z"/><path class="cls-1" d="M105.39,90h-2.27v5.84c0,.93.47,1.18,1.13,1.18a4.79,4.79,0,0,0,.84-.11l.52,2.49a6.34,6.34,0,0,1-1.81.32c-2.43.1-4-1.07-4-3.44V90H98.12V87.47h1.66V84.58h3.34v2.89h2.27Z"/><path class="cls-1" d="M107,93.56c0-3.74,2.28-6.24,5.94-6.24s5.94,2.5,5.94,6.24-2.28,6.22-5.94,6.22S107,97.27,107,93.56Zm8.48,0c0-2.1-.86-3.66-2.52-3.66s-2.56,1.56-2.56,3.66.87,3.66,2.56,3.66S115.44,95.64,115.44,93.53Z"/><path class="cls-1" d="M125.62,83.45h13.21v2.81h-4.92V99.54h-3.37V86.26h-4.92Z"/><path class="cls-1" d="M138.71,93.56c0-3.72,2.31-6.24,5.86-6.24,3.19,0,5.67,2,5.67,6.13v.92H142a2.63,2.63,0,0,0,2.74,2.91,2.26,2.26,0,0,0,2.31-1.4l3.1.21c-.47,2.24-2.48,3.69-5.47,3.69C141,99.78,138.71,97.39,138.71,93.56Zm8.38-1.27a2.37,2.37,0,0,0-2.47-2.47,2.55,2.55,0,0,0-2.6,2.47Z"/><path class="cls-1" d="M151.94,93.56c0-3.71,2.27-6.24,5.93-6.24,3.15,0,5.26,1.83,5.41,4.62h-3.16a2.15,2.15,0,0,0-2.2-2c-1.55,0-2.57,1.3-2.57,3.58s1,3.62,2.57,3.62a2.15,2.15,0,0,0,2.2-2h3.16c-.16,2.77-2.18,4.66-5.39,4.66C154.17,99.78,151.94,97.23,151.94,93.56Z"/><path class="cls-1" d="M168.78,99.54h-3.35V87.47h3.19V89.6h.15a3.65,3.65,0,0,1,3.63-2.28c2.51,0,4.16,1.72,4.16,4.54v7.68h-3.35V92.46a2.07,2.07,0,0,0-2.14-2.36,2.23,2.23,0,0,0-2.29,2.47Z"/><path class="cls-1" d="M179.07,84.22a1.82,1.82,0,1,1,1.81,1.7A1.76,1.76,0,0,1,179.07,84.22Zm.13,3.25h3.35V99.54H179.2Z"/><path class="cls-1" d="M184.73,93.56c0-3.71,2.27-6.24,5.93-6.24,3.15,0,5.26,1.83,5.41,4.62h-3.16a2.15,2.15,0,0,0-2.2-2c-1.55,0-2.57,1.3-2.57,3.58s1,3.62,2.57,3.62a2.15,2.15,0,0,0,2.2-2h3.16c-.16,2.77-2.18,4.66-5.4,4.66C187,99.78,184.73,97.23,184.73,93.56Z"/><path class="cls-1" d="M197.74,93.56c0-3.74,2.28-6.24,5.94-6.24s5.94,2.5,5.94,6.24-2.28,6.22-5.94,6.22S197.74,97.27,197.74,93.56Zm8.48,0c0-2.1-.87-3.66-2.53-3.66s-2.55,1.56-2.55,3.66.86,3.66,2.55,3.66S206.22,95.64,206.22,93.53Z"/><path class="cls-1" d="M223,86.08c-1.67,0-2.59.76-2.59,1.79s1.15,1.68,2.55,2l1.44.35c2.8.62,4.82,2,4.83,4.73,0,2.94-2.32,4.82-6.25,4.82s-6.4-1.8-6.48-5.28h3.29c.11,1.61,1.38,2.43,3.15,2.43s2.85-.8,2.85-2-1-1.59-2.73-2l-1.75-.44c-2.72-.66-4.4-2-4.39-4.39,0-2.92,2.57-4.87,6.1-4.87s5.94,2,6,4.85h-3.26C225.61,86.81,224.61,86.08,223,86.08Z"/><path class="cls-1" d="M239.18,87.47h3.35V99.54h-3.22V97.35h-.12a3.7,3.7,0,0,1-3.66,2.35c-2.43,0-4.08-1.72-4.09-4.54V87.47h3.35v7.09a2.06,2.06,0,0,0,2.09,2.31,2.27,2.27,0,0,0,2.3-2.47Z"/><path class="cls-1" d="M245.21,87.47h3.3v2h.15a3.54,3.54,0,0,1,3.43-2.18c2.65,0,4.89,2.06,4.89,6.2s-2.15,6.22-4.9,6.22a3.55,3.55,0,0,1-3.42-2.13h-.11v6.46h-3.34ZM251,97.08c1.64,0,2.54-1.46,2.54-3.57S252.68,90,251,90s-2.54,1.38-2.54,3.53S249.41,97.08,251,97.08Z"/><path class="cls-1" d="M258.72,93.56c0-3.72,2.3-6.24,5.85-6.24,3.19,0,5.68,2,5.68,6.13v.92H262a2.62,2.62,0,0,0,2.73,2.91,2.27,2.27,0,0,0,2.32-1.4l3.1.21c-.47,2.24-2.49,3.69-5.47,3.69C261,99.78,258.72,97.39,258.72,93.56Zm8.38-1.27a2.38,2.38,0,0,0-2.47-2.47,2.54,2.54,0,0,0-2.6,2.47Z"/><path class="cls-1" d="M272.44,87.47h3.24v2.11h.13a2.94,2.94,0,0,1,2.9-2.28,5,5,0,0,1,1.05.12v3a5.69,5.69,0,0,0-1.41-.18,2.43,2.43,0,0,0-2.56,2.5v6.83h-3.35Z"/><path class="cls-1" d="M281.36,84.22a1.81,1.81,0,1,1,1.81,1.7A1.76,1.76,0,0,1,281.36,84.22Zm.13,3.25h3.34V99.54h-3.34Z"/><path class="cls-1" d="M287,93.56c0-3.74,2.28-6.24,5.94-6.24s5.94,2.5,5.94,6.24-2.28,6.22-5.94,6.22S287,97.27,287,93.56Zm8.48,0c0-2.1-.87-3.66-2.52-3.66s-2.56,1.56-2.56,3.66.87,3.66,2.56,3.66S295.5,95.64,295.5,93.53Z"/><path class="cls-1" d="M301.09,87.47h3.25v2.11h.12a2.94,2.94,0,0,1,2.9-2.28,5.13,5.13,0,0,1,1.06.12v3a5.78,5.78,0,0,0-1.42-.18,2.43,2.43,0,0,0-2.56,2.5v6.83h-3.35Z"/><path class="cls-1" d="M309.09,93.56c0-3.72,2.3-6.24,5.85-6.24,3.19,0,5.68,2,5.68,6.13v.92H312.4a2.62,2.62,0,0,0,2.73,2.91,2.27,2.27,0,0,0,2.32-1.4l3.09.21c-.47,2.24-2.48,3.69-5.46,3.69C311.36,99.78,309.09,97.39,309.09,93.56Zm8.37-1.27A2.37,2.37,0,0,0,315,89.82a2.54,2.54,0,0,0-2.6,2.47Z"/><path class="cls-1" d="M16.23,385.05H13.29l-7-10.13H6.17v10.13H2.76V369h3l7,10.12h.14V369h3.39Z"/><path class="cls-1" d="M26.72,373h3.34v12.07H26.85v-2.19h-.13a3.69,3.69,0,0,1-3.66,2.35c-2.43,0-4.08-1.72-4.08-4.54V373h3.34v7.09a2.07,2.07,0,0,0,2.09,2.31,2.28,2.28,0,0,0,2.31-2.47Z"/><path class="cls-1" d="M32.25,379.07c0-3.74,2.28-6.24,5.94-6.24s6,2.5,6,6.24-2.28,6.22-6,6.22S32.25,382.78,32.25,379.07Zm8.48,0c0-2.1-.86-3.66-2.52-3.66s-2.55,1.56-2.55,3.66.86,3.66,2.55,3.66S40.73,381.15,40.73,379Z"/><path class="cls-1" d="M53,385.05H49.19L45,373H48.5L51,381.62h.12l2.5-8.64h3.55Z"/><path class="cls-1" d="M58,379.07c0-3.72,2.3-6.24,5.85-6.24,3.19,0,5.68,2,5.68,6.13v.92H61.32a2.62,2.62,0,0,0,2.73,2.91,2.27,2.27,0,0,0,2.32-1.4l3.1.21C69,383.84,67,385.29,64,385.29,60.28,385.29,58,382.9,58,379.07Zm8.38-1.27a2.38,2.38,0,0,0-2.47-2.47,2.54,2.54,0,0,0-2.6,2.47Z"/><path class="cls-1" d="M76.31,369H89.53v2.81H84.6v13.28H81.24V371.77H76.31Z"/><path class="cls-1" d="M89.41,379.07c0-3.72,2.3-6.24,5.85-6.24,3.19,0,5.68,2,5.68,6.13v.92H92.72a2.62,2.62,0,0,0,2.73,2.91,2.27,2.27,0,0,0,2.32-1.4l3.09.21c-.47,2.24-2.48,3.69-5.46,3.69C91.68,385.29,89.41,382.9,89.41,379.07Zm8.37-1.27a2.37,2.37,0,0,0-2.46-2.47,2.54,2.54,0,0,0-2.6,2.47Z"/><path class="cls-1" d="M102.64,379.07c0-3.71,2.26-6.24,5.92-6.24,3.15,0,5.27,1.83,5.41,4.62h-3.16a2.15,2.15,0,0,0-2.19-2c-1.56,0-2.58,1.3-2.58,3.58s1,3.62,2.58,3.62a2.14,2.14,0,0,0,2.19-2H114c-.16,2.77-2.18,4.66-5.39,4.66C104.86,385.29,102.64,382.74,102.64,379.07Z"/><path class="cls-1" d="M119.48,385.05h-3.35V373h3.19v2.13h.14a3.65,3.65,0,0,1,3.63-2.28c2.52,0,4.17,1.72,4.17,4.54v7.68h-3.35V378a2.07,2.07,0,0,0-2.15-2.36,2.22,2.22,0,0,0-2.28,2.47Z"/><path class="cls-1" d="M129.41,379.07c0-3.74,2.28-6.24,5.94-6.24s5.94,2.5,5.94,6.24-2.28,6.22-5.94,6.22S129.41,382.78,129.41,379.07Zm8.48,0c0-2.1-.87-3.66-2.53-3.66s-2.55,1.56-2.55,3.66.86,3.66,2.55,3.66S137.89,381.15,137.89,379Z"/><path class="cls-1" d="M146.83,385.05h-3.35V369h3.35Z"/><path class="cls-1" d="M149,379.07c0-3.74,2.28-6.24,5.94-6.24s6,2.5,6,6.24-2.28,6.22-6,6.22S149,382.78,149,379.07Zm8.48,0c0-2.1-.86-3.66-2.52-3.66s-2.55,1.56-2.55,3.66.86,3.66,2.55,3.66S157.49,381.15,157.49,379Z"/><path class="cls-1" d="M163,386.47l3.09-.42a2.4,2.4,0,0,0,2.5,1.38c1.46,0,2.52-.65,2.52-2.31v-2.2H171a3.51,3.51,0,0,1-3.44,2c-2.72,0-4.89-1.87-4.89-5.88s2.24-6.17,4.88-6.17A3.57,3.57,0,0,1,171,375h.13v-2h3.32v12.19c0,3.09-2.45,4.66-5.9,4.66C165.27,389.83,163.41,388.37,163,386.47Zm8.12-7.49c0-2.11-.91-3.49-2.54-3.49s-2.53,1.44-2.53,3.49.89,3.39,2.53,3.39S171.13,381.11,171.13,379Z"/><path class="cls-1" d="M177,369.73a1.81,1.81,0,1,1,1.8,1.7A1.75,1.75,0,0,1,177,369.73Zm.12,3.25h3.35v12.07H177.1Z"/><path class="cls-1" d="M182.64,379.07c0-3.72,2.3-6.24,5.85-6.24,3.19,0,5.68,2,5.68,6.13v.92H186a2.62,2.62,0,0,0,2.73,2.91,2.27,2.27,0,0,0,2.32-1.4l3.09.21c-.47,2.24-2.48,3.69-5.47,3.69C184.91,385.29,182.64,382.9,182.64,379.07ZM191,377.8a2.37,2.37,0,0,0-2.46-2.47,2.54,2.54,0,0,0-2.6,2.47Z"/><path class="cls-1" d="M201.49,373h3.3v2h.15a3.55,3.55,0,0,1,3.43-2.18c2.65,0,4.89,2.05,4.89,6.2s-2.15,6.22-4.9,6.22a3.56,3.56,0,0,1-3.42-2.13h-.1v6.46h-3.35Zm5.81,9.61c1.65,0,2.54-1.47,2.54-3.57s-.88-3.53-2.54-3.53-2.53,1.38-2.53,3.53S205.69,382.59,207.3,382.59Z"/><path class="cls-1" d="M215,379.07c0-3.72,2.31-6.24,5.86-6.24,3.19,0,5.67,2,5.67,6.13v.92h-8.22a2.63,2.63,0,0,0,2.74,2.91,2.26,2.26,0,0,0,2.31-1.4l3.1.21c-.47,2.24-2.48,3.69-5.47,3.69C217.27,385.29,215,382.9,215,379.07Zm8.38-1.27a2.37,2.37,0,0,0-2.47-2.47,2.55,2.55,0,0,0-2.6,2.47Z"/><path class="cls-1" d="M228.72,373H232v2.11h.12a2.94,2.94,0,0,1,2.9-2.28,5,5,0,0,1,1,.12v3a5.69,5.69,0,0,0-1.41-.18,2.43,2.43,0,0,0-2.56,2.5v6.83h-3.35Z"/><path class="cls-1" d="M242.78,369.73a1.81,1.81,0,1,1,1.8,1.7A1.75,1.75,0,0,1,242.78,369.73Zm.12,3.25h3.35v12.07H242.9Z"/><path class="cls-1" d="M252.27,385.05h-3.35V369h3.35Z"/><path class="cls-1" d="M260,372.29a5.74,5.74,0,0,1,2-4l1.48.87a5.6,5.6,0,0,0-1,3.13V374H260Zm4,0a5.74,5.74,0,0,1,2-4l1.47.87a5.6,5.6,0,0,0-1,3.13V374h-2.52Z"/><path class="cls-1" d="M273.67,369l4.43,10.81h.19L282.72,369h4.2v16.09h-3.3V374.58h-.13L279.32,385h-2.25l-4.16-10.44h-.13v10.51h-3.31V369Z"/><path class="cls-1" d="M289.1,381.68c0-2.69,2.14-3.49,4.53-3.71,2.1-.21,2.93-.31,2.93-1.09v-.05c0-1-.66-1.56-1.8-1.56a2,2,0,0,0-2.14,1.39l-3.1-.25c.47-2.2,2.37-3.58,5.26-3.58,2.69,0,5.12,1.21,5.12,4.08v8.14h-3.17v-1.67h-.1a3.7,3.7,0,0,1-3.52,1.9C290.8,385.28,289.1,384.07,289.1,381.68Zm7.48-.94v-1.28a7.92,7.92,0,0,1-2.33.54c-1.18.17-1.95.63-1.95,1.57s.74,1.4,1.76,1.4A2.32,2.32,0,0,0,296.58,380.74Z"/><path class="cls-1" d="M302.06,379c0-4.15,2.24-6.2,4.89-6.2a3.54,3.54,0,0,1,3.43,2.18h.11V369h3.34v16.09h-3.3v-1.93h-.15a3.55,3.55,0,0,1-3.42,2.13C304.21,385.25,302.06,383.07,302.06,379Zm8.5,0c0-2.15-.91-3.53-2.54-3.53s-2.54,1.44-2.54,3.53.9,3.57,2.54,3.57S310.56,381.17,310.56,379Z"/><path class="cls-1" d="M316.09,379.07c0-3.72,2.3-6.24,5.85-6.24,3.19,0,5.68,2,5.68,6.13v.92H319.4a2.62,2.62,0,0,0,2.73,2.91,2.27,2.27,0,0,0,2.32-1.4l3.09.21c-.47,2.24-2.48,3.69-5.46,3.69C318.36,385.29,316.09,382.9,316.09,379.07Zm8.37-1.27a2.37,2.37,0,0,0-2.46-2.47,2.54,2.54,0,0,0-2.6,2.47Z"/><path class="cls-1" d="M334.81,369.73a1.82,1.82,0,1,1,1.81,1.7A1.76,1.76,0,0,1,334.81,369.73Zm.13,3.25h3.35v12.07h-3.35Z"/><path class="cls-1" d="M344.31,385.05H341V373h3.19v2.13h.14a3.65,3.65,0,0,1,3.63-2.28c2.52,0,4.17,1.72,4.17,4.54v7.68h-3.35V378a2.07,2.07,0,0,0-2.15-2.36,2.22,2.22,0,0,0-2.28,2.47Z"/><path class="cls-1" d="M363.33,385.05h-3.41V369h3.41Z"/><path class="cls-1" d="M372.49,375.5h-2.27v5.84c0,.93.46,1.18,1.13,1.18a4.66,4.66,0,0,0,.83-.11l.53,2.49a6.42,6.42,0,0,1-1.82.32c-2.42.1-4-1.07-4-3.44V375.5h-1.65V373h1.65v-2.89h3.35V373h2.27Z"/><path class="cls-1" d="M374.1,381.68c0-2.69,2.15-3.49,4.54-3.71,2.1-.21,2.92-.31,2.92-1.09v-.05c0-1-.65-1.56-1.79-1.56a2,2,0,0,0-2.15,1.39l-3.09-.25c.46-2.2,2.36-3.58,5.26-3.58,2.68,0,5.12,1.21,5.12,4.08v8.14h-3.18v-1.67h-.09a3.71,3.71,0,0,1-3.53,1.9C375.81,385.28,374.1,384.07,374.1,381.68Zm7.48-.94v-1.28a7.85,7.85,0,0,1-2.32.54c-1.18.17-2,.63-2,1.57s.74,1.4,1.77,1.4A2.31,2.31,0,0,0,381.58,380.74Z"/><path class="cls-1" d="M390.86,385.05h-3.34V369h3.34Z"/><path class="cls-1" d="M393.5,389.23l.75-2.49c1.18.36,2,.3,2.46-.83l.2-.51L392.58,373h3.52l2.5,8.87h.12l2.53-8.87h3.54l-4.69,13.38a4.35,4.35,0,0,1-4.5,3.22A5.65,5.65,0,0,1,393.5,389.23Z"/><path class="cls-1" d="M410,370.66a5.74,5.74,0,0,1-2,4l-1.48-.87a5.57,5.57,0,0,0,1-3.13V369H410Zm3.94,0a5.76,5.76,0,0,1-2,4l-1.48-.87a5.65,5.65,0,0,0,1-3.13V369H414Z"/><path class="cls-1" d="M21.13,178.65H2.77V111H21.13Z"/><path class="cls-1" d="M28,111H86.77v14.79H66.43v52.84H48.34V125.81H28Z"/><path class="cls-1" d="M109,119c0,6.47-4.49,13.34-8.72,17l-7.53-3.83A24.61,24.61,0,0,0,96.28,119V111H109Z"/><path class="cls-1" d="M144.88,125.15c-5.67,0-8.15,2.18-8.18,5.16-.17,3.23,2.7,5.11,9.11,6.47l5.55,1.19c14.92,3.2,21.06,10.43,21.13,20.73-.07,13.34-10.34,20.74-27.47,20.74-17.64,0-29.13-7.6-29.19-24.57h17.43c.3,6.21,4.46,9.51,11.49,9.51,5.88,0,8.92-2.34,9-5.68-.06-3.07-2.64-4.95-10.17-6.6l-6.73-1.45c-12-2.58-19.32-8.46-19.29-19-.09-12.88,11.26-21.53,27.34-21.53,16.38,0,26.62,8.78,26.69,22.05H154C153.63,127.76,150.83,125.15,144.88,125.15Z"/><path class="cls-1" d="M20.47,196.62l13.21,27.47h.53l13.21-27.47H67.89L43.06,243v21.27H24.83V243L0,196.62Z"/><path class="cls-1" d="M101.7,265.17c-18.49,0-32.89-12.28-32.89-34.74s14.4-34.73,32.89-34.73,32.89,12.15,32.89,34.73S120.06,265.17,101.7,265.17Zm0-53.49c-9.11,0-14,6.6-14,18.75s4.89,18.76,14,18.76,14-6.6,14-18.76S110.81,211.68,101.7,211.68Z"/><path class="cls-1" d="M201.42,196.62v43.32c0,15.46-11.83,25.1-29.19,25.1S143,255.4,143,239.94V196.62H161.4v41.74a10.83,10.83,0,0,0,21.66,0V196.62Z"/><path class="cls-1" d="M210.13,196.62h29.19c15,0,25.09,8.59,25.09,23,0,9.38-4.29,16-11.49,19.42l13.74,25.23H246.72l-11.89-22.32h-6.34v22.32H210.13Zm24.83,31c6.44,0,10.3-2.28,10.3-8.06s-3.86-8.32-10.3-8.32h-6.47v16.38Z"/><path class="cls-1" d="M2.77,282.22H50.32V297H21.13v11.63H47.42v14.79H21.13v26.42H2.77Z"/><path class="cls-1" d="M115.43,282.22v43.32c0,15.46-11.82,25.1-29.18,25.1-17.51,0-29.2-9.64-29.2-25.1V282.22H75.41V324a10.84,10.84,0,0,0,21.67,0V282.22Z"/><path class="cls-1" d="M122.3,282.22h58.78V297H160.74v52.84h-18.1V297H122.3Z"/><path class="cls-1" d="M246.32,282.22v43.32c0,15.46-11.82,25.1-29.19,25.1s-29.19-9.64-29.19-25.1V282.22H206.3V324A10.83,10.83,0,0,0,228,324V282.22Z"/><path class="cls-1" d="M255,282.22h29.19c15,0,25.1,8.59,25.1,23,0,9.38-4.3,15.95-11.49,19.42l13.73,25.23H291.62l-11.89-22.32h-6.34v22.32H255Zm24.83,31c6.44,0,10.31-2.28,10.31-8.06s-3.87-8.32-10.31-8.32h-6.47v16.38Z"/><path class="cls-1" d="M317.11,282.22h48.73V297H335.47v11.63h27.87v14.79H335.47v11.62h30.24v14.8h-48.6Z"/><path class="cls-1" d="M377.86,341.66a9.15,9.15,0,0,1,9.25-9.12,9.18,9.18,0,1,1,0,18.36A9.17,9.17,0,0,1,377.86,341.66Zm16.78-13H379.58l-1.72-46.49h18.49Z"/><path class="cls-1" d="M21.13,68.55H2.77V.92H21.13Z"/><path class="cls-1" d="M28,.92H86.77v14.8H66.43V68.55H48.34V15.72H28Z"/><path class="cls-1" d="M121,15.06c-5.68,0-8.16,2.18-8.19,5.15-.17,3.23,2.71,5.12,9.11,6.47l5.55,1.19c14.93,3.2,21.07,10.43,21.13,20.74-.06,13.34-10.33,20.73-27.47,20.73-17.63,0-29.12-7.59-29.19-24.56h17.44c.29,6.2,4.45,9.51,11.49,9.51,5.87,0,8.91-2.35,9-5.68-.07-3.07-2.64-5-10.17-6.61l-6.74-1.45c-12-2.58-19.31-8.45-19.28-19C93.54,8.65,104.9,0,121,0c16.38,0,26.61,8.78,26.68,22.06H130.09C129.73,17.67,126.92,15.06,121,15.06Z"/></g></g></svg>